HIERARCHY
ROOT Reference
{
  OFFSET 0 0 0
  CHANNELS 6 Xposition Yposition Zposition Zrotation Xrotation Yrotation
  JOINT Hips
  {
    OFFSET 251.394 724.17 483.536
    CHANNELS 3 Zrotation Xrotation Yrotation
    JOINT RightUpLeg
    {
      OFFSET -0.450515 -23.4426 -1.37224
      CHANNELS 3 Zrotation Xrotation Yrotation
      JOINT RightLeg
      {
        OFFSET 112.821 0.0872427 -0.321027
        CHANNELS 3 Zrotation Xrotation Yrotation
        JOINT RightFoot
        {
          OFFSET 105.718 0.000193788 0.0213165
          CHANNELS 3 Zrotation Xrotation Yrotation
          JOINT RightToeBase
          {
            OFFSET 37.638 -0.000116272 0.00224792
            CHANNELS 3 Zrotation Xrotation Yrotation
            JOINT RightToeEnd
            {
              OFFSET 21.2112 0.114605 -0.000138184
              CHANNELS 3 Zrotation Xrotation Yrotation
              End Site
              {
                OFFSET 0 0 0
              }
            }
          }
        }
      }
    }
    JOINT LeftUpLeg
    {
      OFFSET -0.449508 23.4315 -1.37054
      CHANNELS 3 Zrotation Xrotation Yrotation
      JOINT LeftLeg
      {
        OFFSET 112.821 -0.0485242 -0.372458
        CHANNELS 3 Zrotation Xrotation Yrotation
        JOINT LeftFoot
        {
          OFFSET 105.716 0.00496094 -0.0229443
          CHANNELS 3 Zrotation Xrotation Yrotation
          JOINT LeftToeBase
          {
            OFFSET 37.639 0 0.00158905
            CHANNELS 3 Zrotation Xrotation Yrotation
            JOINT LeftToeEnd
            {
              OFFSET 21.2113 -0.125031 -0.00017438
              CHANNELS 3 Zrotation Xrotation Yrotation
              End Site
              {
                OFFSET 0 0 0
              }
            }
          }
        }
      }
    }
    JOINT Spine
    {
      OFFSET -5.01225 0.000463591 -9.60395
      CHANNELS 3 Zrotation Xrotation Yrotation
      JOINT Spine1
      {
        OFFSET 26.0222 -0.000271301 -0.000155029
        CHANNELS 3 Zrotation Xrotation Yrotation
        JOINT Spine2
        {
          OFFSET 27.173 -0.000155029 -0.000310058
          CHANNELS 3 Zrotation Xrotation Yrotation
          JOINT Spine3
          {
            OFFSET 36.3953 -0.000232544 7.75146e-005
            CHANNELS 3 Zrotation Xrotation Yrotation
            JOINT Neck
            {
              OFFSET 36.4331 0 -3.00261
              CHANNELS 3 Zrotation Xrotation Yrotation
              JOINT Head
              {
                OFFSET 23.0407 -0.000232544 -0.000310058
                CHANNELS 3 Zrotation Xrotation Yrotation
                End Site
                {
                  OFFSET 0 0 0
                }
              }
            }
            JOINT LeftShoulder
            {
              OFFSET 20.1317 6.74168 -12.6061
              CHANNELS 3 Zrotation Xrotation Yrotation
              JOINT LeftArm
              {
                OFFSET 34.2172 -5.81359e-005 7.75146e-005
                CHANNELS 3 Zrotation Xrotation Yrotation
                JOINT LeftForeArm
                {
                  OFFSET 65.4129 -0.0821605 0.0585235
                  CHANNELS 3 Zrotation Xrotation Yrotation
                  JOINT LeftHand
                  {
                    OFFSET 67.3883 0.0359667 0.0112396
                    CHANNELS 3 Zrotation Xrotation Yrotation
                    JOINT LeftHandThumb1
                    {
                      OFFSET 8.78386 2.85353 -6.05362
                      CHANNELS 3 Zrotation Xrotation Yrotation
                      JOINT LeftHandThumb2
                      {
                        OFFSET 8.25498 -0.000116272 -0.000174407
                        CHANNELS 3 Zrotation Xrotation Yrotation
                        JOINT LeftHandThumb3
                        {
                          OFFSET 7.24822 0.000310058 5.81358e-005
                          CHANNELS 3 Zrotation Xrotation Yrotation
                          JOINT LeftHandThumb4
                          {
                            OFFSET 7.0004 -3.87568e-005 -0.000310057
                            CHANNELS 3 Zrotation Xrotation Yrotation
                            End Site
                            {
                              OFFSET 0 0 0
                            }
                          }
                        }
                      }
                    }
                    JOINT LeftHandIndex1
                    {
                      OFFSET 24.0991 -1.01537 -5.40558
                      CHANNELS 3 Zrotation Xrotation Yrotation
                      JOINT LeftHandIndex2
                      {
                        OFFSET 7.26759 -0.000290679 -0.000465086
                        CHANNELS 3 Zrotation Xrotation Yrotation
                        JOINT LeftHandIndex3
                        {
                          OFFSET 7.13628 -1.93787e-005 0.000232543
                          CHANNELS 3 Zrotation Xrotation Yrotation
                          JOINT LeftHandIndex4
                          {
                            OFFSET 5.46699 9.68932e-005 -0.000387571
                            CHANNELS 3 Zrotation Xrotation Yrotation
                            End Site
                            {
                              OFFSET 0 0 0
                            }
                          }
                        }
                      }
                    }
                    JOINT LeftHandMiddle1
                    {
                      OFFSET 24.4604 -2.52837 0.918567
                      CHANNELS 3 Zrotation Xrotation Yrotation
                      JOINT LeftHandMiddle2
                      {
                        OFFSET 7.41627 -5.81359e-005 0.000116271
                        CHANNELS 3 Zrotation Xrotation Yrotation
                        JOINT LeftHandMiddle3
                        {
                          OFFSET 8.76829 3.87573e-005 -7.75142e-005
                          CHANNELS 3 Zrotation Xrotation Yrotation
                          JOINT LeftHandMiddle4
                          {
                            OFFSET 6.07588 -0.00013565 -5.81356e-005
                            CHANNELS 3 Zrotation Xrotation Yrotation
                            End Site
                            {
                              OFFSET 0 0 0
                            }
                          }
                        }
                      }
                    }
                    JOINT LeftHandRing1
                    {
                      OFFSET 22.465 -1.97467 6.3466
                      CHANNELS 3 Zrotation Xrotation Yrotation
                      JOINT LeftHandRing2
                      {
                        OFFSET 7.36666 -0.000232544 0.000387571
                        CHANNELS 3 Zrotation Xrotation Yrotation
                        JOINT LeftHandRing3
                        {
                          OFFSET 8.07624 -0.000465087 -0.000203475
                          CHANNELS 3 Zrotation Xrotation Yrotation
                          JOINT LeftHandRing4
                          {
                            OFFSET 6.04433 0.00013565 3.87571e-005
                            CHANNELS 3 Zrotation Xrotation Yrotation
                            End Site
                            {
                              OFFSET 0 0 0
                            }
                          }
                        }
                      }
                    }
                    JOINT LeftHandPinky1
                    {
                      OFFSET 19.5278 0.352933 10.4295
                      CHANNELS 3 Zrotation Xrotation Yrotation
                      JOINT LeftHandPinky2
                      {
                        OFFSET 6.16525 5.8136e-005 -0.000251921
                        CHANNELS 3 Zrotation Xrotation Yrotation
                        JOINT LeftHandPinky3
                        {
                          OFFSET 6.14448 -0.000329434 -0.00510625
                          CHANNELS 3 Zrotation Xrotation Yrotation
                          JOINT LeftHandPinky4
                          {
                            OFFSET 4.98555 0.000116272 0.000116271
                            CHANNELS 3 Zrotation Xrotation Yrotation
                            End Site
                            {
                              OFFSET 0 0 0
                            }
                          }
                        }
                      }
                    }
                  }
                }
              }
            }
            JOINT RightShoulder
            {
              OFFSET 20.1309 -6.74152 -12.6063
              CHANNELS 3 Zrotation Xrotation Yrotation
              JOINT RightArm
              {
                OFFSET 34.2171 7.75146e-005 7.75146e-005
                CHANNELS 3 Zrotation Xrotation Yrotation
                JOINT RightForeArm
                {
                  OFFSET 65.4492 0.242543 -0.176501
                  CHANNELS 3 Zrotation Xrotation Yrotation
                  JOINT RightHand
                  {
                    OFFSET 67.3888 -0.0867388 0.0597442
                    CHANNELS 3 Zrotation Xrotation Yrotation
                    JOINT RightHandThumb1
                    {
                      OFFSET 8.78307 -2.85357 -6.05302
                      CHANNELS 3 Zrotation Xrotation Yrotation
                      JOINT RightHandThumb2
                      {
                        OFFSET 8.25493 -7.75145e-005 0
                        CHANNELS 3 Zrotation Xrotation Yrotation
                        JOINT RightHandThumb3
                        {
                          OFFSET 7.24797 -0.000174408 0.000155029
                          CHANNELS 3 Zrotation Xrotation Yrotation
                          JOINT RightHandThumb4
                          {
                            OFFSET 7.00062 0 0
                            CHANNELS 3 Zrotation Xrotation Yrotation
                            End Site
                            {
                              OFFSET 0 0 0
                            }
                          }
                        }
                      }
                    }
                    JOINT RightHandIndex1
                    {
                      OFFSET 24.0991 1.01525 -5.40578
                      CHANNELS 3 Zrotation Xrotation Yrotation
                      JOINT RightHandIndex2
                      {
                        OFFSET 7.26773 7.75144e-005 0.000232543
                        CHANNELS 3 Zrotation Xrotation Yrotation
                        JOINT RightHandIndex3
                        {
                          OFFSET 7.13572 -0.000310058 3.87571e-005
                          CHANNELS 3 Zrotation Xrotation Yrotation
                          JOINT RightHandIndex4
                          {
                            OFFSET 5.46717 0 3.87572e-005
                            CHANNELS 3 Zrotation Xrotation Yrotation
                            End Site
                            {
                              OFFSET 0 0 0
                            }
                          }
                        }
                      }
                    }
                    JOINT RightHandMiddle1
                    {
                      OFFSET 24.4603 2.52899 0.918547
                      CHANNELS 3 Zrotation Xrotation Yrotation
                      JOINT RightHandMiddle2
                      {
                        OFFSET 7.41641 -0.000116272 -0.000116272
                        CHANNELS 3 Zrotation Xrotation Yrotation
                        JOINT RightHandMiddle3
                        {
                          OFFSET 8.76765 -3.87577e-005 0.000232543
                          CHANNELS 3 Zrotation Xrotation Yrotation
                          JOINT RightHandMiddle4
                          {
                            OFFSET 6.07609 -0.000193787 -0.000116271
                            CHANNELS 3 Zrotation Xrotation Yrotation
                            End Site
                            {
                              OFFSET 0 0 0
                            }
                          }
                        }
                      }
                    }
                    JOINT RightHandRing1
                    {
                      OFFSET 22.465 1.97571 6.34696
                      CHANNELS 3 Zrotation Xrotation Yrotation
                      JOINT RightHandRing2
                      {
                        OFFSET 7.36684 0.000193786 0.000155029
                        CHANNELS 3 Zrotation Xrotation Yrotation
                        JOINT RightHandRing3
                        {
                          OFFSET 8.07614 -0.000271301 0
                          CHANNELS 3 Zrotation Xrotation Yrotation
                          JOINT RightHandRing4
                          {
                            OFFSET 6.04468 0.000232543 0
                            CHANNELS 3 Zrotation Xrotation Yrotation
                            End Site
                            {
                              OFFSET 0 0 0
                            }
                          }
                        }
                      }
                    }
                    JOINT RightHandPinky1
                    {
                      OFFSET 19.5277 -0.352346 10.4296
                      CHANNELS 3 Zrotation Xrotation Yrotation
                      JOINT RightHandPinky2
                      {
                        OFFSET 6.16508 0 0.000232543
                        CHANNELS 3 Zrotation Xrotation Yrotation
                        JOINT RightHandPinky3
                        {
                          OFFSET 6.14396 -0.000155048 -0.0048834
                          CHANNELS 3 Zrotation Xrotation Yrotation
                          JOINT RightHandPinky4
                          {
                            OFFSET 4.98577 -7.75146e-005 -7.75143e-005
                            CHANNELS 3 Zrotation Xrotation Yrotation
                            End Site
                            {
                              OFFSET 0 0 0
                            }
                          }
                        }
                      }
                    }
                  }
                }
              }
            }
          }
        }
      }
    }
  }
}
MOTION
Frames:	5
Frame Time:	0.0333333
0 0 0 -90 -7.01671e-015 -180 3.08349 0.705835 -111.474 168.152 2.78007 -110.775 -0.231039 -0.291129 -11.7838 -3.65227 -4.3384 46.3041 -0.572202 0.102501 58.0092 -2.7172e-005 -9.01632e-005 -86.4974 -166.078 1.20443 -103.465 -0.0772969 0.0941425 -24.2204 2.0555 4.59125 50.3172 0.591759 -0.0550724 63.3847 -1.5395e-005 2.89921e-005 -86.4974 5.50898e-005 0.000301856 120.48 5.18792 -1.10146 -16.4665 -7.90386 -2.2116 -14.962 -2.20854 6.169 4.4118 7.70515 -25.4944 26.3126 -7.0431 -19.6518 47.9175 91.2168 26.0197 -16.6884 55.2918 14.3732 -6.94996 2.37124 51.8775 80.6976 -46.434 -10.3236 26.6168 -179.418 2.12884 142.428 0.000557662 1.3202e-005 4.86657 0.000398446 -0.000378339 12.9966 -0.000138432 -0.00193768 -16.7469 36.066 86.5085 -20.3566 -0.000517461 -0.00037692 14.4455 0.00122589 -0.0010537 10.5801 -0.000689138 -0.000410218 -2.24034 -30.4549 87.5674 59.7296 -7.26055e-005 -0.000102804 13.3963 0.0011053 -0.000855067 14.2219 -0.0006063 -0.000239581 -2.22245 135.426 84.5104 -101.102 7.69496e-005 -0.000564186 16.1645 0.00126553 -0.000282031 17.0109 -0.000675046 -0.00074221 -2.23031 114.331 78.2553 -81.2448 0.00100576 -0.00126082 17.4216 -0.00020269 -0.000198623 15.6048 0.000549455 -0.000176953 -2.29052 -106.795 -21.5917 -32.2051 -64.4565 -19.4205 13.0963 10.0267 -11.7348 33.4721 1.77919 1.93782 -3.15139 160.544 4.05921 164.695 -9.69056e-005 8.80691e-005 10.4461 0.000140705 0.000116781 5.08667 -0.000213623 -0.00012207 -180 -108.804 -84.0157 -100.833 -0.000178757 -0.00011216 8.41544 0.00015144 7.99392e-005 2.42645 -0.000107175 -3.05154e-005 179.318 8.40802 -89.0342 31.7538 -2.72339e-005 9.33053e-005 7.71786 -6.8619e-006 0.000151253 7.71801 -4.55957e-005 1.52577e-005 179.321 53.6091 -87.6807 81.6251 1.05748e-005 -7.73212e-005 11.5078 -7.15864e-006 0.000321959 11.5082 4.47998e-005 -9.15474e-005 179.389 53.4865 -85.2233 81.5118 -3.34792e-006 0.000229099 11.5119 0.000176507 0.000178218 11.5049 -3.66728e-007 -3.05153e-005 179.311 
0 0 0 -90 -7.01671e-015 -180 3.18442 0.675199 -111.559 168.456 2.85036 -110.972 -0.223533 -0.287336 -11.5528 -3.56577 -4.54937 46.175 -0.571966 0.103646 57.8942 -2.72268e-005 -0.000152523 -86.4974 -166.276 1.46443 -103.607 -0.077328 0.093854 -24.2044 2.06423 4.87451 50.3331 0.59174 -0.055333 63.3596 -1.52701e-005 2.59451e-005 -86.4974 2.4753e-005 0.000301548 120.446 5.28267 -1.1533 -16.4603 -8.41014 -2.3192 -14.9431 -2.28194 6.34876 4.48756 8.18663 -27.5451 26.1438 -7.52104 -20.9306 48.4469 91.4091 26.0197 -16.4414 55.531 14.3137 -7.14784 2.40404 51.6475 80.4834 -46.2166 -10.4308 26.8624 -179.418 2.12884 142.428 0.00055767 1.31851e-005 4.86657 0.000399178 -0.000198536 12.9966 -0.000138429 -0.00202985 -16.7469 36.0655 86.5085 -20.3561 -0.000517413 -0.000380153 14.4455 0.00122538 -0.000824655 10.5801 -0.000689107 -0.000409411 -2.23982 -30.4571 87.5675 59.7318 -7.25755e-005 -0.00010754 13.3963 0.00110531 -0.000855014 14.2219 -0.000605482 -0.000241509 -2.22188 135.425 84.5104 -101.101 7.69471e-005 -0.000566533 16.1645 0.00126555 -0.000291339 17.0109 -0.000673366 -0.000742356 -2.22969 114.331 78.2553 -81.2448 0.00100436 -0.00113489 17.4216 -0.000202725 -0.000212887 15.6048 0.000545158 -0.000176175 -2.28961 -106.599 -21.551 -32.4559 -64.2396 -19.3569 13.0628 10.3544 -11.8725 33.4081 1.77563 2.37826 -3.25935 160.553 4.05653 164.498 -9.74432e-005 8.37461e-005 10.4461 0.000140757 0.000114355 5.08667 -0.000213623 -0.00012207 -180 -106.614 -84.6811 -99.1467 -0.000187575 -0.000116926 8.15298 0.000152438 7.94342e-005 2.16589 -0.000107301 -3.05136e-005 179.082 8.2516 -88.6783 31.0922 -2.84174e-005 9.04126e-005 7.45539 -6.77793e-006 0.000155045 7.45744 -3.02744e-005 1.52568e-005 179.087 52.858 -87.8517 80.6104 1.0823e-005 -8.61701e-005 11.2452 -8.5518e-006 0.000322173 11.2475 4.44162e-005 -9.15425e-005 179.149 52.6454 -85.6083 80.4098 -3.45624e-006 0.00022979 11.2507 0.000268038 0.000188359 11.2402 -4.92364e-007 -3.05136e-005 179.076 
0 0 0 -90 -7.01671e-015 -180 3.31445 0.724199 -111.644 168.428 3.12823 -111.134 -0.220843 -0.283064 -11.3167 -3.50257 -4.38044 46.0575 -0.571906 0.104213 57.8408 -2.924e-005 -2.78441e-005 -86.4974 -166.139 1.61948 -103.717 -0.0754048 0.0981411 -24.2306 2.15214 4.86452 50.3616 0.591879 -0.0543022 63.4527 -1.5254e-005 1.9098e-005 -86.4974 5.10927e-005 0.000316961 120.44 5.46421 -1.2552 -16.4322 -9.07942 -2.52811 -15.0041 -2.39523 6.63658 4.56812 8.72048 -29.4361 26.1972 -8.06307 -22.1247 48.8081 91.5289 26.0302 -15.9522 55.8564 14.3035 -7.37702 2.52718 51.5168 80.1336 -46.2644 -10.6865 27.0537 -179.418 2.12886 142.428 0.000557682 1.32087e-005 4.86657 0.000399312 -0.000200732 12.9966 -0.000138234 -0.00184294 -16.7469 36.0646 86.5084 -20.3552 -0.000517636 -0.000383497 14.4455 0.00122549 -0.000824592 10.58 -0.000690001 -0.000411095 -2.23929 -30.457 87.5675 59.7317 -7.43815e-005 -0.000115554 13.3963 0.00110562 -0.00086082 14.2219 -0.000601205 -0.000241188 -2.22131 135.427 84.5103 -101.102 7.53099e-005 -0.000571798 16.1645 0.00126572 -0.000309337 17.0109 -0.000671615 -0.000741469 -2.22908 114.331 78.2553 -81.2447 0.00100447 -0.00113483 17.4216 -0.00020297 -0.000243962 15.6048 0.00054436 -0.000176382 -2.28871 -106.313 -21.4752 -32.9073 -64.0565 -19.2709 12.9479 10.6581 -12.0703 33.107 1.71379 2.829 -3.29484 160.562 4.0523 164.279 -9.70253e-005 7.64795e-005 10.4461 0.000140654 0.000114309 5.08667 -0.000213623 -0.000137329 -180 -103.623 -85.4065 -96.6681 -0.000197025 -0.000118812 7.89052 0.000153446 8.06516e-005 1.90533 -0.000107426 -3.05113e-005 178.846 8.28597 -88.2856 30.6101 -2.49434e-005 9.16407e-005 7.19292 -6.45353e-006 0.000152525 7.19688 -3.02119e-005 1.52557e-005 178.852 51.8323 -88.0402 79.3225 2.61341e-005 -9.43623e-005 10.9827 -6.68576e-006 0.000321404 10.9869 2.90645e-005 -7.628e-005 178.909 51.4781 -86.0331 78.9833 -6.06199e-006 0.000231526 10.9896 0.000360652 0.000204733 10.9755 -6.17999e-007 -3.05113e-005 178.84 
0 0 0 -90 -7.01671e-015 -180 3.3151 0.733808 -111.719 168.252 3.32167 -111.233 -0.21183 -0.281862 -11.2868 -3.46463 -4.09513 46.0796 -0.571631 0.105706 57.6837 -2.91286e-005 -3.05286e-005 -86.4974 -166.185 1.69928 -103.848 -0.0750183 0.0977316 -24.1417 2.19266 4.98986 50.3309 0.59183 -0.054446 63.4437 -1.52e-005 6.25496e-006 -86.4974 3.13212e-005 0.000277916 120.393 5.45855 -1.34808 -16.4358 -9.33007 -2.67914 -15.004 -2.42868 6.67612 4.71504 9.06937 -31.1036 26.0349 -8.49628 -23.1375 49.3671 91.6359 26.0278 -15.7524 55.9868 14.3144 -7.46837 2.55883 51.433 79.9943 -46.453 -10.9415 27.0672 -179.418 2.12889 142.428 0.000557628 1.08416e-005 4.86657 0.000398956 -0.000200463 12.9966 -0.000138481 -0.0018474 -16.7469 36.0664 86.5085 -20.357 -0.000517409 -0.000388069 14.4455 0.00122539 -0.000826972 10.5801 -0.000690814 -0.000410679 -2.23878 -30.4569 87.5675 59.7316 -7.26456e-005 -0.000128315 13.3963 0.00110529 -0.000866792 14.2219 -0.000605476 -0.000241948 -2.22073 135.426 84.5103 -101.102 7.64607e-005 -0.000580113 16.1645 0.00126558 -0.000345819 17.0109 -0.000675059 -0.000742794 -2.22847 114.331 78.2553 -81.2443 0.00100453 -0.00113475 17.4216 -0.000202873 -0.000304188 15.6048 0.000540929 -0.000176936 -2.2878 -106.236 -21.4471 -33.0703 -63.742 -19.0594 12.7078 11.1825 -12.2783 32.7674 1.64736 3.5345 -3.50046 160.571 4.04974 164.037 -9.77285e-005 6.20977e-005 10.4461 0.000140701 0.000114252 5.08667 -0.000213623 -0.000183105 -180 -99.3525 -86.171 -92.9144 -0.000207454 -0.000123521 7.62806 0.00015356 8.33924e-005 1.64477 -0.000107552 -3.05086e-005 178.609 8.47158 -87.8528 30.2739 -2.56494e-005 9.00504e-005 6.93044 -5.58687e-006 0.000151983 6.93631 -3.01494e-005 1.52543e-005 178.617 50.433 -88.2422 77.6642 3.69989e-005 -0.000101191 10.7201 -7.33697e-006 0.000327137 10.7262 2.87448e-005 -7.62732e-005 178.669 49.8503 -86.4878 77.0996 -4.19087e-006 0.000229065 10.7284 0.000454568 0.000214872 10.7107 -7.43624e-007 -3.05085e-005 178.604 
0 0 0 -90 -7.01671e-015 -180 3.56764 1.13113 -112.003 168.677 3.65937 -111.812 -0.206174 -0.276916 -10.6972 -3.34501 -3.95033 45.822 -1.12437 0.477283 57.5251 -2.89448e-005 -3.47626e-005 -86.4974 -165.675 1.85153 -104.107 -0.0727706 0.102823 -24.2367 2.33203 4.99503 50.3871 0.591663 -0.0560568 63.2891 -1.5199e-005 -1.96744e-005 -86.4974 4.01516e-005 0.00030131 120.419 5.76782 -1.69909 -16.2152 -10.291 -3.15644 -15.073 -2.60681 7.10432 4.88288 9.50068 -33.0319 25.9311 -8.70441 -24.1131 49.7881 91.6485 26.0548 -14.8715 56.7624 14.5563 -7.96667 2.22728 51.059 79.7704 -47.0794 -11.7303 27.2255 -179.418 2.12894 142.428 0.000557508 6.82613e-006 4.86657 0.000398313 -0.00020338 12.9966 -0.000138171 -0.00185795 -16.7469 36.0664 86.5085 -20.357 -0.000517427 -0.000399557 14.4455 0.0012254 -0.000830295 10.5801 -0.000690873 -0.000410664 -2.23825 -30.4567 87.5675 59.7314 -7.26315e-005 -0.000154786 13.3963 0.00110527 -0.000879305 14.2219 -0.000603763 -0.000240921 -2.22016 135.426 84.5103 -101.102 7.69112e-005 -0.000597021 16.1645 0.0012655 -0.000418611 17.0109 -0.000675892 -0.000742655 -2.22785 114.331 78.2553 -81.245 0.00100435 -0.00113725 17.4216 -0.00020582 -0.000184113 15.6048 0.000538362 -0.000176909 -2.28689 -106.088 -21.2965 -33.9035 -63.4098 -18.6402 12.7439 10.9241 -12.3111 32.0108 1.71954 3.6035 -3.3904 160.58 4.04713 163.795 -9.72689e-005 3.1347e-005 10.4461 0.000140551 0.000111755 5.08667 -0.000213623 -0.00024414 -180 -92.8394 -86.9464 -86.9152 -0.000199275 -0.000131865 7.38108 0.000154529 8.37704e-005 1.38421 -0.000107678 -3.05052e-005 178.373 8.68273 -87.4202 29.9631 -3.07626e-005 7.91409e-005 6.67929 -7.57857e-006 0.000154302 6.67575 -3.0087e-005 1.52527e-005 178.383 48.5058 -88.4532 75.4832 3.02477e-005 -0.000101414 10.4732 -6.5526e-006 0.000325531 10.4655 2.88437e-005 -6.10121e-005 178.428 47.5452 -86.9621 74.5439 -7.46841e-006 0.000231057 10.4673 0.00054858 0.000225736 10.446 1.43896e-005 -3.05052e-005 178.368 
